<?xml version="1.0" standalone="no"?>
<!DOCTYPE svg PUBLIC "-//W3C//DTD SVG 20010904//EN"
 "http://www.w3.org/TR/2001/REC-SVG-20010904/DTD/svg10.dtd">
<svg version="1.0" xmlns="http://www.w3.org/2000/svg"
 width="524.000000pt" height="480.000000pt" viewBox="0 0 524.000000 480.000000"
 preserveAspectRatio="xMidYMid meet">

<g transform="translate(0.000000,480.000000) scale(0.100000,-0.100000)"
fill="#000000" stroke="none">
<path d="M3215 3485 c-332 -61 -501 -280 -445 -576 28 -148 149 -271 324 -329
33 -11 156 -42 273 -69 119 -28 233 -61 262 -75 118 -61 163 -130 164 -255 1
-222 -148 -351 -405 -351 -234 0 -394 116 -443 321 -8 35 -15 79 -15 97 0 24
-4 32 -17 32 -26 0 -229 -41 -242 -49 -17 -11 14 -122 61 -221 55 -114 168
-229 278 -282 131 -64 181 -73 390 -73 174 1 190 2 266 28 236 79 364 253 364
497 0 149 -38 248 -131 341 -97 97 -194 136 -535 218 -183 44 -262 76 -317
129 -91 89 -83 262 17 349 52 47 101 69 189 87 94 20 142 20 231 1 148 -31
238 -124 271 -279 7 -33 16 -60 21 -60 5 1 62 12 128 24 l118 23 -6 40 c-15
95 -87 219 -169 293 -66 59 -189 118 -289 139 -92 18 -246 18 -343 0z"/>
<path d="M950 2575 l0 -895 105 0 105 0 0 765 c0 421 3 765 8 765 4 0 216
-344 472 -763 l465 -762 148 -3 147 -3 -2 893 -3 893 -107 3 -108 3 0 -761 c0
-418 -3 -760 -7 -760 -5 1 -212 343 -462 760 l-453 760 -154 0 -154 0 0 -895z"/>
<path d="M4345 1996 c-117 -70 -120 -245 -6 -318 41 -26 53 -29 112 -26 54 3
73 9 104 32 85 65 98 200 27 279 -54 60 -166 75 -237 33z"/>
</g>
</svg>
